HIERARCHY
ROOT Hips
{
  OFFSET 2.11349 39.5137 -3.81104
  CHANNELS 6 Xposition Yposition Zposition Zrotation Xrotation Yrotation
  JOINT Chest
  {
    OFFSET 0 4.57 0
    CHANNELS 6 Xposition Yposition Zposition Zrotation Xrotation Yrotation
    JOINT Chest2
    {
      OFFSET 0 6.57 0
      CHANNELS 6 Xposition Yposition Zposition Zrotation Xrotation Yrotation
      JOINT LeftCollar
      {
        OFFSET 1.06 4.19 1.76
        CHANNELS 6 Xposition Yposition Zposition Zrotation Xrotation Yrotation
        JOINT LeftShoulder
        {
          OFFSET 5.81 0 0
          CHANNELS 6 Xposition Yposition Zposition Zrotation Xrotation Yrotation
          JOINT LeftElbow
          {
            OFFSET 0 -12.08 0
            CHANNELS 6 Xposition Yposition Zposition Zrotation Xrotation Yrotation
            JOINT LeftWrist
            {
              OFFSET 0 -9.82 0
              CHANNELS 6 Xposition Yposition Zposition Zrotation Xrotation Yrotation
              End Site
              {
                OFFSET 0 -7.37 0
              }
            }
          }
        }
      }
      JOINT RightCollar
      {
        OFFSET -1.06 4.19 1.76
        CHANNELS 6 Xposition Yposition Zposition Zrotation Xrotation Yrotation
        JOINT RightShoulder
        {
          OFFSET -6.06 0 0
          CHANNELS 6 Xposition Yposition Zposition Zrotation Xrotation Yrotation
          JOINT RightElbow
          {
            OFFSET 0 -11.08 0
            CHANNELS 6 Xposition Yposition Zposition Zrotation Xrotation Yrotation
            JOINT RightWrist
            {
              OFFSET 0 -9.82 0
              CHANNELS 6 Xposition Yposition Zposition Zrotation Xrotation Yrotation
              End Site
              {
                OFFSET 0 -7.14001 0
              }
            }
          }
        }
      }
      JOINT Neck
      {
        OFFSET 0 4.05 0
        CHANNELS 6 Xposition Yposition Zposition Zrotation Xrotation Yrotation
        JOINT Head
        {
          OFFSET 0 5.19 0
          CHANNELS 6 Xposition Yposition Zposition Zrotation Xrotation Yrotation
          End Site
          {
            OFFSET 0 4.14001 0
          }
        }
      }
    }
  }
  JOINT LeftHip
  {
    OFFSET 3.43 0 0
    CHANNELS 6 Xposition Yposition Zposition Zrotation Xrotation Yrotation
    JOINT LeftKnee
    {
      OFFSET 0 -18.47 0
      CHANNELS 6 Xposition Yposition Zposition Zrotation Xrotation Yrotation
      JOINT LeftAnkle
      {
        OFFSET 0 -17.95 0
        CHANNELS 6 Xposition Yposition Zposition Zrotation Xrotation Yrotation
        End Site
        {
          OFFSET 0 -3.12 0
        }
      }
    }
  }
  JOINT RightHip
  {
    OFFSET -3.43 0 0
    CHANNELS 6 Xposition Yposition Zposition Zrotation Xrotation Yrotation
    JOINT RightKnee
    {
      OFFSET 0 -18.47 0
      CHANNELS 6 Xposition Yposition Zposition Zrotation Xrotation Yrotation
      JOINT RightAnkle
      {
        OFFSET 0 -17.95 0
        CHANNELS 6 Xposition Yposition Zposition Zrotation Xrotation Yrotation
        End Site
        {
          OFFSET 0 -3.12 0
        }
      }
    }
  }
}
MOTION
Frames:	11
Frame Time:	0.04
0.195814 41.9401 1.04297 2.31654 10.3122 11.4594 -2.84217e-013 4.57 -1.42109e-014 -1.10527 -0.395916 -14.9873 5.68434e-014 6.57 0 4.36392 -0.528709 -12.0179 1.06 4.19 1.76 -10.5472 -3.3434 24.1349 5.81 3.55271e-014 -4.61853e-014 37.7623 -34.7626 -17.6832 -4.26326e-013 -12.08 -9.66338e-013 -180 -48.6071 166.882 -2.38742e-012 -9.82 -1.9611e-012 1.31635 3.57622 -0.0410964 -1.06 4.19 1.76 -9.56248 0.393901 -2.71836 -6.06 -3.55271e-014 4.26326e-014 -26.7263 34.1051 32.8556 1.7053e-012 -11.08 2.84217e-014 1.38388e-006 -71.0179 12.5346 -5.68434e-012 -9.82 -7.3328e-012 -5.39093 1.74704 0.0822559 5.68434e-014 4.05 4.26326e-014 -22.1462 -13.9309 2.89412 5.68434e-014 5.19 2.84217e-014 11.0045 1.06 -3.89164 3.43 -7.10543e-015 -7.10543e-015 -2.03779 22.2654 8.24583 2.50111e-012 -18.47 -1.50635e-012 0.984577 13.6081 11.3459 1.31877e-011 -17.95 -4.77485e-012 1.1355 1.27589 -0.0126439 -3.43 -7.10543e-015 4.26326e-014 -7.72245 -27.6264 -2.94878 -1.47793e-012 -18.47 3.22764e-012 2.86318 0.293206 2.30665 -7.7307e-012 -17.95 9.21041e-012 0.585975 -9.62945 0.0493578 
0.732024 41.5958 6.2007 5.73339 10.1759 9.53612 4.54747e-013 4.57 2.58944e-016 -3.94932 -0.533453 -12.161 5.68434e-014 6.57 0 4.25905 -0.923993 -9.68142 1.06 4.19 1.76 -12.3365 -3.1838 20.6621 5.81 3.55271e-014 -4.61853e-014 40.6375 -21.1109 -24.0772 -1.39266e-012 -12.08 5.96856e-013 180 -51.9379 164.563 -1.36424e-011 -9.82 -5.94014e-012 1.43978 4.20279 -0.0528321 -1.06 4.19 1.76 -7.10257 0.343885 -3.17583 -6.06 -1.56319e-013 4.26326e-014 -29.6223 30.8801 33.5369 -4.54747e-013 -11.08 1.32161e-012 4.85751e-007 -70.4882 11.486 -7.16227e-012 -9.82 -1.2065e-011 -7.21027 3.71683 0.23426 5.68434e-014 4.05 4.26326e-014 -21.1088 -14.7041 1.47582 8.79297e-014 5.19 -1.56319e-013 9.19861 0.884537 -4.43776 3.43 -7.10543e-015 -7.10543e-015 -2.48051 17.8981 13.1011 -1.59162e-012 -18.47 7.53175e-013 -5.19159e-008 40.2409 2.24944 3.29692e-012 -17.95 -1.98952e-012 2.45332 2.2807 -0.048842 -3.43 -7.10543e-015 4.26326e-014 -10.3415 -24.8103 -5.1869 -1.3074e-012 -18.47 1.42109e-012 3.07955 0.34908 1.16997 -6.19593e-012 -17.95 3.58114e-012 -0.280031 -11.702 -0.0286965 
0.977036 40.717 10.2598 4.3605 11.2351 7.12405 -2.84217e-013 4.57 1.86025e-014 -2.1604 -0.190824 -7.92963 5.68434e-014 6.57 0 4.68527 -0.3933 -6.02489 1.06 4.19 1.76 -14.284 -2.83544 16.5765 5.81 3.55271e-014 -4.61853e-014 40.0053 -7.79596 -30.6233 8.52651e-014 -12.08 4.68958e-013 180 -63.6298 162.921 -1.13403e-011 -9.82 -5.40012e-012 0.198303 4.81773 -0.0083421 -1.06 4.19 1.76 -1.29088 0.189708 -2.96067 -6.06 -1.50521e-013 4.26326e-014 -34.6768 25.0406 34.1652 0 -11.08 3.97904e-013 -7.89048e-007 -68.7638 8.81836 3.41061e-013 -9.82 -1.26477e-012 -10.9358 5.41301 0.518536 5.68434e-014 4.05 4.26326e-014 -17.9192 -12.9426 0.165116 1.20792e-013 5.19 -1.42775e-013 6.80203 -1.25019 -4.77602 3.43 -7.10543e-015 -7.10543e-015 0.773599 6.19741 13.1423 8.52651e-013 -18.47 9.9476e-014 1.79293e-007 69.9715 -2.05622 -1.42109e-012 -17.95 8.10019e-013 1.6468 3.65039 -0.0524813 -3.43 -7.10543e-015 4.26326e-014 -7.39581 -23.1154 -6.64481 -5.11591e-013 -18.47 4.61853e-013 3.90274 0.740901 4.61174 -3.29692e-012 -17.95 7.38964e-013 -2.32523 -1.0779 -0.0218759 
0.940879 40.2997 13.3982 -0.715534 13.78 6.48124 0 4.57 3.97635e-014 2.78664 0.589031 -3.21031 5.68434e-014 6.57 0 6.12344 0.614129 -2.27916 1.06 4.19 1.76 -16.0114 -2.53268 13.5956 5.81 3.55271e-014 -4.61853e-014 37.8324 -0.802366 -34.3358 -5.11591e-013 -12.08 -6.82121e-013 -180 -82.5847 161.754 1.49782e-011 -9.82 7.92966e-012 0.31342 7.57197 -0.0207404 -1.06 4.19 1.76 6.18124 0.0621917 -2.28198 -6.06 -8.80505e-014 4.26326e-014 -40.9285 15.9351 32.9044 3.97904e-013 -11.08 -1.13687e-012 -7.26932e-007 -69.1493 5.58782 3.80851e-012 -9.82 1.27898e-011 -13.682 7.21773 0.867029 5.68434e-014 4.05 4.26326e-014 -15.1509 -13.9872 -2.13126 1.50102e-013 5.19 -4.26326e-014 4.9259 -2.17192 -5.84698 3.43 -7.10543e-015 -7.10543e-015 4.95789 -12.7229 10.5853 -1.13687e-013 -18.47 -6.39488e-013 180 84.7404 179.565 -5.74119e-012 -17.95 4.48352e-012 -2.35254 5.23294 0.107521 -3.43 -7.10543e-015 4.26326e-014 1.07761 -22.6134 -12.213 4.54747e-013 -18.47 7.10543e-014 -1.78555e-012 3.41509e-006 14.5004 2.67164e-012 -17.95 4.33431e-013 -3.94451 6.73345 0.23214 
0.881514 39.9546 16.3939 -5.69293 15.22 6.97895 4.54747e-013 4.57 6.26852e-014 7.85308 2.1151 0.458711 5.68434e-014 6.57 0 7.09499 2.22305 0.573203 1.06 4.19 1.76 -16.2617 -2.38879 12.6764 5.81 3.55271e-014 -4.61853e-014 33.9617 0.118017 -36.4831 -3.41061e-013 -12.08 -9.52127e-013 -2.35628e-006 -74.1028 -16.4186 3.63798e-012 -9.82 9.20863e-012 0.978358 9.69791 -0.0829989 -1.06 4.19 1.76 11.4439 0.309554 0.165826 -6.06 -1.47793e-015 4.26326e-014 -45.9945 2.39382 28.6463 2.84217e-013 -11.08 -7.95808e-013 7.32824e-007 -72.2132 6.98709 -2.95586e-012 -9.82 1.22782e-011 -13.5052 8.54521 1.01364 5.68434e-014 4.05 4.26326e-014 -12.7081 -14.7942 -3.96966 1.7053e-013 5.19 8.9484e-014 3.65416 -2.32624 -6.78733 3.43 -7.10543e-015 -7.10543e-015 7.74825 -32.5427 7.0883 -1.13687e-013 -18.47 -3.30402e-013 180 67.6917 -179.717 -8.52651e-013 -17.95 -6.23146e-012 -2.61776 7.41881 0.169744 -3.43 -7.10543e-015 4.26326e-014 4.8173 -28.0798 -11.9777 -5.11591e-013 -18.47 2.359e-012 4.25883e-007 16.489 13.8849 -3.80851e-012 -17.95 3.12284e-012 -7.24199 -3.81687 -0.24163 
1.06832 39.2488 20.2894 -6.16756 16.0411 6.07445 -6.25278e-013 4.57 8.63113e-014 8.16215 1.81514 2.48743 5.68434e-014 6.57 0 6.34157 1.88019 2.89551 1.06 4.19 1.76 -14.0845 -1.94746 11.5469 5.81 3.55271e-014 -4.61853e-014 32.6761 3.48753 -40.9031 -1.7053e-012 -12.08 -2.40163e-012 -1.09551e-006 -58.4826 -10.9396 -1.29887e-011 -9.82 1.6172e-011 5.19079 7.63293 -0.346506 -1.06 4.19 1.76 10.5657 0.45928 1.27075 -6.06 7.66249e-014 4.26326e-014 -44.6843 -15.3475 21.0957 -5.11591e-013 -11.08 -1.79057e-012 1.26756e-006 -75.8431 10.6837 -2.49258e-011 -9.82 2.91323e-011 -13.5491 10.707 1.27557 5.68434e-014 4.05 4.26326e-014 -9.86499 -12.4629 -4.63849 1.7053e-013 5.19 1.98952e-013 2.08955 -1.84489 -6.87711 3.43 -7.10543e-015 -7.10543e-015 7.11522 -45.6684 4.76433 -1.59162e-012 -18.47 6.96332e-013 -180 61.6487 179.886 1.25056e-012 -17.95 -2.24887e-012 -1.22056 4.38891 0.0467725 -3.43 -7.10543e-015 4.26326e-014 3.41867 -28.7864 -15.7578 -1.93268e-012 -18.47 1.56319e-013 9.63738e-008 29.3238 17.7043 -6.82121e-012 -17.95 -1.82609e-012 -10.1526 -14.6595 -1.30931 
1.58997 39.7852 24.8185 -3.6083 17.0898 1.90337 -3.97904e-013 4.57 1.09585e-013 5.63347 1.08929 5.86458 5.68434e-014 6.57 0 3.8996 1.18064 6.64346 1.06 4.19 1.76 -7.59751 -1.3036 11.7691 5.81 3.55271e-014 -4.61853e-014 35.492 11.3056 -50.0515 -1.62004e-012 -12.08 -1.89004e-012 -4.05781e-007 -59.8718 -11.0156 -1.40119e-011 -9.82 5.14433e-012 3.36097 4.1853 -0.122845 -1.06 4.19 1.76 7.96409 0.342355 0.49959 -6.06 1.13687e-013 4.26326e-014 -39.8142 -29.6703 9.36089 -3.41061e-013 -11.08 -1.0516e-012 -1.01805e-005 -85.6843 11.9224 -2.38174e-011 -9.82 1.92415e-011 -13.2084 10.7973 1.25375 5.68434e-014 4.05 4.26326e-014 -7.07092 -10.5183 -6.33792 0 5.19 2.70006e-013 1.09028 0.141443 -7.92538 3.43 -7.10543e-015 -7.10543e-015 4.70019 -52.0957 4.9683 1.7053e-013 -18.47 2.82796e-012 -180 69.0808 -178.071 1.25056e-012 -17.95 -9.55325e-012 0.32714 -1.50215 0.00428864 -3.43 -7.10543e-015 4.26326e-014 1.89752 -17.8359 -17.1522 -2.27374e-013 -18.47 -6.82121e-013 -2.92222e-007 19.4187 24.3382 9.09495e-013 -17.95 -1.57385e-012 -7.07016 -14.6805 -0.911896 
2.13505 40.3742 29.325 4.16172 17.1727 -2.11059 -2.84217e-013 4.57 1.3145e-013 -2.82445 0.287639 8.90312 5.68434e-014 6.57 0 -0.431396 0.381616 10.3502 1.06 4.19 1.76 -0.0386008 -0.505172 11.4435 5.81 3.55271e-014 -4.61853e-014 37.0161 17.4895 -52.9379 -7.67386e-013 -12.08 -7.53175e-013 9.00314e-007 -65.4337 -12.8601 -6.0254e-012 -9.82 -1.19371e-012 -2.83444 2.37404 0.0587427 -1.06 4.19 1.76 5.32407 0.243075 -0.470655 -6.06 7.10543e-014 4.26326e-014 -36.3735 -36.8368 -1.63934 -6.25278e-013 -11.08 -2.41585e-013 180 -80.5831 -168.533 -8.52651e-012 -9.82 -6.39488e-013 -14.344 11.3657 1.43481 5.68434e-014 4.05 4.26326e-014 -4.31055 -7.47411 -9.13169 -1.13687e-013 5.19 6.06182e-014 0.134047 -0.470252 -9.81581 3.43 -7.10543e-015 -7.10543e-015 -5.05883 -54.9402 1.51855 4.54747e-013 -18.47 9.9476e-014 180 83.834 -176.093 -1.3074e-012 -17.95 -3.73035e-013 0.816275 -7.27384 0.0518847 -3.43 -7.10543e-015 4.26326e-014 -5.90962 -2.70911 -8.80797 -1.7053e-013 -18.47 -1.25056e-012 4.60547 0.947474 19.4952 1.81899e-012 -17.95 -2.57927e-012 -2.35819 -6.98828 -0.144011 
2.43404 41.1198 33.5372 11.0015 16.1413 -2.23875 4.54747e-013 4.57 1.5085e-013 -9.86724 0.919524 9.88135 5.68434e-014 6.57 0 -3.65618 1.10625 11.0033 1.06 4.19 1.76 5.04613 0.00421529 10.4414 5.81 3.55271e-014 -4.61853e-014 37.8952 23.6107 -50.4301 8.52651e-014 -12.08 -8.20677e-013 2.49018e-006 -72.9147 -11.7787 -4.51905e-012 -9.82 1.39551e-011 -3.47644 2.03812 0.0618571 -1.06 4.19 1.76 2.82278 0.131057 -2.25992 -6.06 4.72445e-014 4.26326e-014 -35.9594 -40.9968 -7.55628 2.84217e-013 -11.08 -1.29319e-012 180 -68.0661 -170.408 1.36424e-011 -9.82 1.20792e-011 -18.0163 12.9802 2.06638 5.68434e-014 4.05 4.26326e-014 -3.25049 -4.11064 -10.3101 5.68434e-013 5.19 -1.68754e-013 1.24708 -2.32509 -11.2206 3.43 -7.10543e-015 -7.10543e-015 -16.5666 -54.0048 -7.37816 -1.59162e-012 -18.47 -9.09495e-013 -1.25427e-007 74.8907 5.77467 -4.718e-012 -17.95 2.01794e-012 -0.972059 -9.85554 -0.0838114 -3.43 -7.10543e-015 4.26326e-014 -12.1173 4.03386 -4.40647 -9.09495e-013 -18.47 1.54898e-012 2.79093 0.14061 12.3187 -6.42331e-012 -17.95 3.11218e-012 2.25928 -3.63115 0.0716248 
2.64517 42.1734 37.7463 12.1871 15.7206 -0.435692 0 4.57 1.66729e-013 -10.654 1.64503 10.372 5.68434e-014 6.57 0 -4.83843 2.11101 10.3082 1.06 4.19 1.76 8.83811 0.34314 10.214 5.81 3.55271e-014 -4.61853e-014 39.4412 27.9047 -49.0423 9.9476e-013 -12.08 1.66978e-012 -3.17648e-006 -81.9924 -8.65616 5.25802e-012 -9.82 -9.37916e-012 -4.98829 1.06884 0.0465583 -1.06 4.19 1.76 0.015788 0.104175 -4.14028 -6.06 2.78978e-014 4.26326e-014 -35.1037 -43.2696 -7.6473 2.72848e-012 -11.08 5.96856e-013 -180 -58.7332 -170.085 4.14957e-012 -9.82 3.19744e-012 -13.8048 13.2552 1.61171 5.68434e-014 4.05 4.26326e-014 -3.92949 0.934727 -10.2785 -1.13687e-013 5.19 -1.77636e-013 4.21721 -6.41633 -12.2871 3.43 -7.10543e-015 -7.10543e-015 -17.3038 -46.1734 -10.4214 2.44427e-012 -18.47 2.98428e-013 -1.10788e-007 41.5518 3.27881 1.27329e-011 -17.95 -2.41585e-013 -2.28373 -7.68801 -0.153467 -3.43 -7.10543e-015 4.26326e-014 -11.8867 11.8868 -5.07739 3.0127e-012 -18.47 -1.4353e-012 1.63933 0.131266 5.11461 1.33582e-011 -17.95 -2.83507e-012 4.51394 0.714069 -0.0281432 
2.80692 42.2859 43.3408 2.71879 14.3081 -0.489755 -1.26319e-013 4.57 1.78029e-013 -0.0181897 -0.609259 13.3471 5.68434e-014 6.57 0 -4.15916 -0.586228 10.6636 1.06 4.19 1.76 10.6726 0.495398 9.97409 5.81 3.55271e-014 -4.61853e-014 39.8257 28.17 -46.8524 8.2423e-013 -12.08 -9.9476e-013 1.67596e-005 -88.0884 -10.1388 -3.21165e-012 -9.82 1.2534e-011 -9.10945 -0.0691032 -0.00550496 -1.06 4.19 1.76 -0.802345 0.125083 -4.37771 -6.06 1.24321e-014 4.26326e-014 -33.2119 -42.5635 -4.17433 1.02318e-012 -11.08 -7.53175e-013 -180 -52.9458 -168.303 7.44649e-012 -9.82 4.46221e-012 -12.479 12.7772 1.4027 5.68434e-014 4.05 4.26326e-014 -4.06044 3.36674 -10.3116 1.13687e-013 5.19 -7.63833e-014 5.14151 -7.56578 -12.5787 3.43 -7.10543e-015 -7.10543e-015 -1.0811 -30.3411 -3.05878 -3.41061e-013 -18.47 1.91847e-012 -1.80377 0.273546 -3.07654 -1.36424e-012 -17.95 5.25802e-012 -3.87108 -3.66746 -0.123982 -3.43 -7.10543e-015 4.26326e-014 -2.74736 17.4222 -13.2104 -1.08002e-012 -18.47 4.03588e-012 0.67121 10.9665 14.1495 -9.77707e-012 -17.95 1.13225e-011 5.14605 2.32286 -0.104399 
